<?xml version="1.0" encoding="UTF-8" standalone="no"?>
<!DOCTYPE svg PUBLIC "-//W3C//DTD SVG 1.1//EN"
 "http://www.w3.org/Graphics/SVG/1.1/DTD/svg11.dtd">
<!-- Generated by graphviz version 7.1.0 (0)
 -->
<!-- Pages: 1 -->
<svg width="289pt" height="98pt"
 viewBox="0.00 0.00 289.28 98.00" xmlns="http://www.w3.org/2000/svg" xmlns:xlink="http://www.w3.org/1999/xlink">
<g id="graph0" class="graph" transform="scale(1 1) rotate(0) translate(4 94)">
<polygon fill="white" stroke="none" points="-4,4 -4,-94 285.28,-94 285.28,4 -4,4"/>
<!-- input -->
<g id="node1" class="node">
<title>input</title>
<ellipse fill="none" stroke="black" cx="35.1" cy="-45" rx="35.19" ry="18"/>
<text text-anchor="middle" x="35.1" y="-41.3" font-family="Times,serif" font-size="14.00">input</text>
</g>
<!-- ypp -->
<g id="node2" class="node">
<title>ypp</title>
<ellipse fill="none" stroke="black" cx="134.14" cy="-45" rx="27.9" ry="18"/>
<text text-anchor="middle" x="134.14" y="-41.3" font-family="Times,serif" font-size="14.00">ypp</text>
</g>
<!-- input&#45;&gt;ypp -->
<g id="edge1" class="edge">
<title>input&#45;&gt;ypp</title>
<path fill="none" stroke="black" d="M70.58,-45C78.25,-45 86.44,-45 94.27,-45"/>
<polygon fill="black" stroke="black" points="94.26,-48.5 104.26,-45 94.26,-41.5 94.26,-48.5"/>
</g>
<!-- output -->
<g id="node3" class="node">
<title>output</title>
<ellipse fill="none" stroke="black" cx="239.69" cy="-72" rx="41.69" ry="18"/>
<text text-anchor="middle" x="239.69" y="-68.3" font-family="Times,serif" font-size="14.00">output</text>
</g>
<!-- ypp&#45;&gt;output -->
<g id="edge2" class="edge">
<title>ypp&#45;&gt;output</title>
<path fill="none" stroke="black" d="M160.47,-51.6C170.17,-54.13 181.56,-57.1 192.6,-59.98"/>
<polygon fill="black" stroke="black" points="191.43,-63.29 201.99,-62.43 193.2,-56.52 191.43,-63.29"/>
</g>
<!-- image -->
<g id="node4" class="node">
<title>image</title>
<ellipse fill="none" stroke="black" cx="239.69" cy="-18" rx="38.99" ry="18"/>
<text text-anchor="middle" x="239.69" y="-14.3" font-family="Times,serif" font-size="14.00">image</text>
</g>
<!-- ypp&#45;&gt;image -->
<g id="edge3" class="edge">
<title>ypp&#45;&gt;image</title>
<path fill="none" stroke="black" d="M160.47,-38.4C170.63,-35.74 182.66,-32.61 194.19,-29.6"/>
<polygon fill="black" stroke="black" points="194.76,-33.07 203.55,-27.16 192.99,-26.3 194.76,-33.07"/>
</g>
</g>
</svg>
